<svg width="34" height="34" viewBox="0 0 34 34" fill="none" xmlns="http://www.w3.org/2000/svg">
<path d="M1 17L4.55556 13.4444M4.55556 13.4444L17 1L29.4444 13.4444M4.55556 13.4444V31.2222C4.55556 31.6937 4.74286 32.1459 5.07625 32.4793C5.40965 32.8127 5.86184 33 6.33333 33H11.6667M29.4444 13.4444L33 17M29.4444 13.4444V31.2222C29.4444 31.6937 29.2571 32.1459 28.9237 32.4793C28.5903 32.8127 28.1382 33 27.6667 33H22.3333M11.6667 33C12.1382 33 12.5903 32.8127 12.9237 32.4793C13.2571 32.1459 13.4444 31.6937 13.4444 31.2222V24.1111C13.4444 23.6396 13.6317 23.1874 13.9651 22.854C14.2985 22.5206 14.7507 22.3333 15.2222 22.3333H18.7778C19.2493 22.3333 19.7015 22.5206 20.0349 22.854C20.3683 23.1874 20.5556 23.6396 20.5556 24.1111V31.2222C20.5556 31.6937 20.7429 32.1459 21.0763 32.4793C21.4097 32.8127 21.8618 33 22.3333 33M11.6667 33H22.3333" stroke="#313952" stroke-width="2" stroke-linecap="round" stroke-linejoin="round"/>
</svg>
