<svg width="130" height="99" viewBox="0 0 130 99" fill="none" xmlns="http://www.w3.org/2000/svg">
<g filter="url(#filter0_d_883_67093)">
<path d="M14.9717 25.4731C14.9717 25.4731 15.7198 23.3907 20.7602 23.3799C25.8005 23.3691 28.7543 27.0279 28.7543 27.0279C28.7543 27.0279 30.8676 25.4342 33.4221 26.4981C35.9765 27.5621 35.9706 28.1654 35.9706 28.1654H42.5281" stroke="#313952" stroke-width="0.2" stroke-linecap="round" stroke-linejoin="round"/>
<path d="M121.4 28.7883C121.4 28.7883 120.651 26.7037 115.611 26.6929C110.571 26.6821 107.617 30.3431 107.617 30.3431C107.617 30.3431 105.504 28.7494 102.949 29.8133C100.395 30.8772 100.401 31.4805 100.401 31.4805H93.8433" stroke="#313952" stroke-width="0.2" stroke-linecap="round" stroke-linejoin="round"/>
<path d="M109.298 25.0149H105.602C105.602 25.0149 106.612 23.4688 104.329 21.6393C102.046 19.8099 99.7241 21.0274 99.7241 21.0274C99.7241 21.0274 97.4827 15.4613 90.946 16.1143C84.4094 16.7674 83.7209 21.3388 83.7209 21.3388C83.7209 21.3388 82.3229 20.2165 79.4764 20.9539C76.6298 21.6912 76.1976 24.5175 76.9041 25.7112C76.9041 25.7112 73.6641 26.1675 73.4465 28.1742C73.4465 28.1742 73.2468 26.3989 70.1975 26.3448C67.1483 26.2907 66.3853 29.037 66.3853 29.037H62.9604" stroke="#313952" stroke-width="0.2" stroke-linecap="round" stroke-linejoin="round"/>
<path d="M26.0923 21.0316L43.1895 20.4131C45.0703 15.8525 52.1822 17.7598 52.1822 17.7598C54.8737 13.0284 61.1719 15.2838 61.1719 15.2838C61.1719 15.2838 64.3672 10.7254 70.6743 11.679C72.4521 11.9213 74.1028 12.5155 75.4442 13.3959C76.7856 14.2763 77.7653 15.4087 78.275 16.6678L82.6268 16.7997" stroke="#313952" stroke-width="0.2" stroke-linecap="round" stroke-linejoin="round"/>
<path d="M17.6782 67.476V54.3846H20.5099L22.9838 52.5876V49.9927H23.8095V61.6525" stroke="#313952" stroke-width="0.2" stroke-linecap="round" stroke-linejoin="round"/>
<path d="M21.272 69.3788V62.5498H29.7609V75.0314" stroke="#313952" stroke-width="0.2" stroke-linecap="round" stroke-linejoin="round"/>
<path d="M26.0923 61.6524V57.2302H29.7615V53.5281H30.7272V47.5728H31.5022V52.1031H32.614V57.3426L34.1044 58.4239V61.3561H36.8585" stroke="#313952" stroke-width="0.2" stroke-linecap="round" stroke-linejoin="round"/>
<path d="M32.2744 75.8273V67.6619H34.656V63.7263H37.8006V57.3428H39.2343" stroke="#313952" stroke-width="0.2" stroke-linecap="round" stroke-linejoin="round"/>
<path d="M102.419 63.5276V61.6528H100.535V58.0112H99.7481V61.6095H96.6929V63.1297" stroke="#313952" stroke-width="0.2" stroke-linecap="round" stroke-linejoin="round"/>
<path d="M112.108 61.8617V57.2579L108.395 54.5635H106.979V58.0104H106.037V58.6267H106.979V64.1582H98.8027V73.4156V78.4887" stroke="#313952" stroke-width="0.2" stroke-linecap="round" stroke-linejoin="round"/>
<path d="M109.297 73.6755V62.5498H117.199V65.348" stroke="#313952" stroke-width="0.2" stroke-linecap="round" stroke-linejoin="round"/>
<path d="M114.526 61.6526V53.5283H115.313V61.6526" stroke="#313952" stroke-width="0.2" stroke-linecap="round" stroke-linejoin="round"/>
<path d="M96.6926 77.9836V70.0604H88.8027V59.6937L82.4032 55.0488V50.2114H81.041V70.4864" stroke="#313952" stroke-width="0.2" stroke-linecap="round" stroke-linejoin="round"/>
<path d="M83.2529 80.271V71.5607H74.8564V65.5923H73.7624V57.0507H72.755V48.9199H71.4107V39.1587H70.2304V48.548L68.6715 49.6768V54.3844H65.8398V65.5837H60.1348V72.7176H56.3374V80.271" stroke="#313952" stroke-width="0.2" stroke-linecap="round" stroke-linejoin="round"/>
<path d="M40.1255 61.3564H44.5727V69.1693H48.1018V75.5745" stroke="#313952" stroke-width="0.2" stroke-linecap="round" stroke-linejoin="round"/>
<path d="M45.2671 64.0027H48.1017V56.6245H61.6191V64.1584" stroke="#313952" stroke-width="0.2" stroke-linecap="round" stroke-linejoin="round"/>
<path d="M74.9229 62.5498H79.7456" stroke="#313952" stroke-width="0.2" stroke-linecap="round" stroke-linejoin="round"/>
<path d="M92.516 69.3788V55.6387H91.4937V69.5604" stroke="#313952" stroke-width="0.2" stroke-linecap="round" stroke-linejoin="round"/>
<path d="M91.4945 25.1226V31.824H90.5676V26.1605H84.9162V31.824H83.9892V26.1605H52.0244V31.824H51.0974V26.1605H45.446V31.824H44.519V25.1226H91.4945Z" fill="#5E6783"/>
<mask id="mask0_883_67093" style="mask-type:luminance" maskUnits="userSpaceOnUse" x="44" y="25" width="48" height="7">
<path d="M91.4955 25.1226V31.824H90.5685V26.1605H84.9172V31.824H83.9902V26.1605H52.0254V31.824H51.0984V26.1605H45.447V31.824H44.52V25.1226H91.4955Z" fill="white"/>
</mask>
<g mask="url(#mask0_883_67093)">
<path opacity="0.5" d="M91.4955 25.1226V27.9683H90.5685V26.1605H84.9172V27.9683H83.9902V26.1605H52.0254V27.9683H51.0984V26.1605H45.447V27.9683H44.52V25.1226H91.4955Z" fill="black"/>
</g>
<path d="M91.4946 25.1226V31.824H90.5676V26.1605H84.9162V31.824H83.9892V26.1605H52.0244V31.824H51.0974V26.1605H45.446V31.824H44.519V25.1226H91.4946Z" stroke="#313952" stroke-width="0.2" stroke-linecap="round" stroke-linejoin="round"/>
<path d="M90.1151 23.6587H77.0805H70.7675H45.8132L39.2349 26.5845H64.4991H74.4069H96.6934L90.1151 23.6587Z" fill="#5E6783"/>
<mask id="mask1_883_67093" style="mask-type:luminance" maskUnits="userSpaceOnUse" x="39" y="23" width="58" height="4">
<path d="M90.1141 23.6587H77.0796H70.7665H45.8122L39.2339 26.5845H64.4981H74.4059H96.6924L90.1141 23.6587Z" fill="white"/>
</mask>
<g mask="url(#mask1_883_67093)">
<path opacity="0.1" d="M90.1141 23.6587H77.0796H70.7665H45.8122L39.2339 26.5845H64.4981H74.4059H96.6924L90.1141 23.6587Z" fill="black"/>
<path opacity="0.1" d="M78.6165 23.6587H58.9082V26.5845H83.7104L78.6165 23.6587Z" fill="black"/>
</g>
<path d="M90.1151 23.6587H77.0805H70.7675H45.8132L39.2349 26.5845H64.4991H74.4069H96.6934L90.1151 23.6587Z" stroke="#313952" stroke-width="0.2" stroke-linecap="round" stroke-linejoin="round"/>
<path d="M54.9575 24.2207H89.0356" stroke="#313952" stroke-width="0.2" stroke-linecap="round" stroke-linejoin="round"/>
<path d="M80.5907 24.8433H56.4531" stroke="#313952" stroke-width="0.2" stroke-linecap="round" stroke-linejoin="round"/>
<path d="M50.7446 25.564H78.4828" stroke="#313952" stroke-width="0.2" stroke-linecap="round" stroke-linejoin="round"/>
<path d="M81.6851 24.8433H82.5107" stroke="#313952" stroke-width="0.2" stroke-linecap="round" stroke-linejoin="round"/>
<path d="M85.1577 24.8433H88.35" stroke="#313952" stroke-width="0.2" stroke-linecap="round" stroke-linejoin="round"/>
<path d="M90.4785 24.2207H91.0597" stroke="#313952" stroke-width="0.2" stroke-linecap="round" stroke-linejoin="round"/>
<path d="M80.1528 25.564H86.9339" stroke="#313952" stroke-width="0.2" stroke-linecap="round" stroke-linejoin="round"/>
<path d="M88.3501 25.564H89.2562" stroke="#313952" stroke-width="0.2" stroke-linecap="round" stroke-linejoin="round"/>
<path d="M91.4937 25.564H94.3938" stroke="#313952" stroke-width="0.2" stroke-linecap="round" stroke-linejoin="round"/>
<path d="M43.1489 24.8433H49.4352" stroke="#313952" stroke-width="0.2" stroke-linecap="round" stroke-linejoin="round"/>
<path d="M52.6177 24.8433H53.4463" stroke="#313952" stroke-width="0.2" stroke-linecap="round" stroke-linejoin="round"/>
<path d="M52.6185 24.2207H46.2905" stroke="#313952" stroke-width="0.2" stroke-linecap="round" stroke-linejoin="round"/>
<path d="M44.519 25.564H46.0153" stroke="#313952" stroke-width="0.2" stroke-linecap="round" stroke-linejoin="round"/>
<path d="M93.9871 31.6294V79.7934C86.0615 82.8208 76.3534 84.6048 64.684 84.767C56.7818 84.845 48.9731 83.5199 41.9385 80.907V31.6294H93.9871Z" fill="#5E6783" stroke="#5E6783" stroke-width="0.2" stroke-miterlimit="10"/>
<path opacity="0.4" d="M93.9871 31.6294V79.7934C86.0615 82.8208 76.3534 84.6048 64.684 84.767C56.7818 84.845 48.9731 83.5199 41.9385 80.907V31.6294H93.9871Z" fill="white"/>
<path opacity="0.2" d="M78.7372 31.8242H76.4331V83.5432H78.7372V31.8242Z" fill="black"/>
<path opacity="0.2" d="M53.2107 80.8764L52.0244 83.0388V32.4854L53.2107 34.6478V80.8764Z" fill="black"/>
<path opacity="0.2" d="M84.5269 77.7324L86.7862 79.3715H93.9875V77.7324H84.5269Z" fill="black"/>
<path opacity="0.2" d="M84.5269 68.1812L86.7862 69.8203H93.9875V68.1812H84.5269Z" fill="black"/>
<path opacity="0.2" d="M84.5269 58.627L86.7862 60.2661H93.9875V58.627H84.5269Z" fill="black"/>
<path opacity="0.2" d="M84.5269 49.0762L86.7862 50.7153H93.9875V49.0762H84.5269Z" fill="black"/>
<path opacity="0.2" d="M84.5269 39.5244L86.7862 41.1635H93.9875V39.5244H84.5269Z" fill="black"/>
<path opacity="0.2" d="M41.9009 77.7324L44.1602 79.3715H51.9577V77.7324H41.9009Z" fill="black"/>
<path opacity="0.2" d="M41.9009 68.1812L44.1602 69.8203H51.9577V68.1812H41.9009Z" fill="black"/>
<path opacity="0.2" d="M41.9009 58.627L44.1602 60.2661H51.9577V58.627H41.9009Z" fill="black"/>
<path opacity="0.2" d="M41.9009 49.0762L44.1602 50.7153H51.9577V49.0762H41.9009Z" fill="black"/>
<path opacity="0.2" d="M41.9009 39.5244L44.1602 41.1635H51.9577V39.5244H41.9009Z" fill="black"/>
<path d="M42.6538 29.502H93.2717" stroke="#313952" stroke-width="0.2" stroke-linecap="round" stroke-linejoin="round"/>
<path d="M42.6538 30.0488H93.2717" stroke="#313952" stroke-width="0.2" stroke-linecap="round" stroke-linejoin="round"/>
<path d="M42.6538 30.5957H93.2717" stroke="#313952" stroke-width="0.2" stroke-linecap="round" stroke-linejoin="round"/>
<path d="M42.6538 31.1431H93.2717" stroke="#313952" stroke-width="0.2" stroke-linecap="round" stroke-linejoin="round"/>
<path d="M93.2717 29.0151H42.6538V31.6295H93.2717V29.0151Z" stroke="#313952" stroke-width="0.2" stroke-linecap="round" stroke-linejoin="round"/>
<path d="M97.3361 26.1606H38.5869V26.8685H97.3361V26.1606Z" fill="#5E6783"/>
<mask id="mask2_883_67093" style="mask-type:luminance" maskUnits="userSpaceOnUse" x="38" y="26" width="60" height="1">
<path d="M97.3371 26.1606H38.5879V26.8685H97.3371V26.1606Z" fill="white"/>
</mask>
<g mask="url(#mask2_883_67093)">
<path opacity="0.2" d="M97.3371 26.1606H38.5879V26.8685H97.3371V26.1606Z" fill="black"/>
<path opacity="0.2" d="M83.9896 26.1606H58.9102V26.8685H83.9896V26.1606Z" fill="black"/>
</g>
<path d="M97.3361 26.1606H38.5869V26.8685H97.3361V26.1606Z" stroke="#313952" stroke-width="0.2" stroke-linecap="round" stroke-linejoin="round"/>
<path d="M41.9385 80.9027V31.6294H93.9871V79.7934" stroke="#313952" stroke-width="0.2" stroke-linecap="round" stroke-linejoin="round"/>
<path d="M58.6802 85.1087V23.6587H77.2438V84.6762" fill="#5E6783"/>
<mask id="mask3_883_67093" style="mask-type:luminance" maskUnits="userSpaceOnUse" x="58" y="23" width="20" height="63">
<path d="M58.6792 85.1087V23.6587H77.2429V84.6762" fill="white"/>
</mask>
<g mask="url(#mask3_883_67093)">
<path opacity="0.5" d="M77.2429 24.2207H58.6792V25.8209H77.2429V24.2207Z" fill="black"/>
</g>
<path d="M58.6802 85.1087V23.6587H77.2438V84.6762" stroke="#313952" stroke-width="0.2" stroke-linecap="round" stroke-linejoin="round"/>
<path d="M65.2111 33.3809H60.0635V36.2266H65.2111V33.3809Z" fill="white" stroke="#313952" stroke-width="0.2" stroke-linecap="round" stroke-linejoin="round"/>
<path d="M65.0623 33.4893H62.7881V36.1188H65.0623V33.4893Z" fill="white"/>
<path d="M64.9129 33.5971V36.0104H62.9367V33.5971H64.9129ZM65.211 33.3809H62.6387V36.2266H65.211V33.3809Z" fill="#313952"/>
<path d="M50.7673 33.3809H42.8208V38.841H50.7673V33.3809Z" fill="white" stroke="#313952" stroke-width="0.2" stroke-linecap="round" stroke-linejoin="round"/>
<path d="M45.4458 33.3809V38.841" stroke="#313952" stroke-width="0.2" stroke-linecap="round" stroke-linejoin="round"/>
<path d="M50.4712 33.5971V38.6248H48.3996V33.5971H50.4712ZM50.7693 33.3809H48.1016V38.841H50.7693V33.3809Z" fill="#313952"/>
<path d="M51.3984 38.8413H40.1255V39.5535H51.3984V38.8413Z" fill="#5E6783" stroke="#313952" stroke-width="0.2" stroke-linecap="round" stroke-linejoin="round"/>
<path d="M40.1255 36.7129H51.3984" stroke="#313952" stroke-width="0.2" stroke-linecap="round" stroke-linejoin="round"/>
<path d="M40.1255 37.2603H51.3984" stroke="#313952" stroke-width="0.2" stroke-linecap="round" stroke-linejoin="round"/>
<path d="M40.1255 37.8076H51.3984" stroke="#313952" stroke-width="0.2" stroke-linecap="round" stroke-linejoin="round"/>
<path d="M40.1255 38.3545H51.3984" stroke="#313952" stroke-width="0.2" stroke-linecap="round" stroke-linejoin="round"/>
<path d="M51.3984 36.2266H40.1255V38.8409H51.3984V36.2266Z" stroke="#313952" stroke-width="0.2" stroke-linecap="round" stroke-linejoin="round"/>
<path d="M56.1828 33.3809H54.4897V36.2266H56.1828V33.3809Z" fill="white" stroke="#313952" stroke-width="0.2" stroke-linecap="round" stroke-linejoin="round"/>
<path d="M70.7132 36.2266H75.8608V33.3808H70.7132V36.2266Z" fill="white" stroke="#313952" stroke-width="0.2" stroke-linecap="round" stroke-linejoin="round"/>
<path d="M73.1366 33.4893H70.8623V36.1188H73.1366V33.4893Z" fill="white"/>
<path d="M72.9902 33.5971V36.0104H71.008V33.5971H72.9872M73.2853 33.3809H70.71V36.2266H73.2853V33.3809Z" fill="#313952"/>
<path d="M85.157 38.8413H93.1035V33.3812H85.157V38.8413Z" fill="white" stroke="#313952" stroke-width="0.2" stroke-linecap="round" stroke-linejoin="round"/>
<path d="M90.4785 33.3809V38.841" stroke="#313952" stroke-width="0.2" stroke-linecap="round" stroke-linejoin="round"/>
<path d="M87.5244 33.5971V38.6248H85.4558V33.5971H87.5244ZM87.8224 33.3809H85.1577V38.841H87.8224V33.3809Z" fill="#313952"/>
<path d="M84.5288 39.5547H95.8018V38.8425H84.5288V39.5547Z" fill="#5E6783" stroke="#313952" stroke-width="0.2" stroke-linecap="round" stroke-linejoin="round"/>
<path d="M95.7998 36.7129H84.5269" stroke="#313952" stroke-width="0.2" stroke-linecap="round" stroke-linejoin="round"/>
<path d="M95.7998 37.2603H84.5269" stroke="#313952" stroke-width="0.2" stroke-linecap="round" stroke-linejoin="round"/>
<path d="M95.7998 37.8076H84.5269" stroke="#313952" stroke-width="0.2" stroke-linecap="round" stroke-linejoin="round"/>
<path d="M95.7998 38.3545H84.5269" stroke="#313952" stroke-width="0.2" stroke-linecap="round" stroke-linejoin="round"/>
<path d="M84.5288 38.8433H95.8018V36.2289H84.5288V38.8433Z" stroke="#313952" stroke-width="0.2" stroke-linecap="round" stroke-linejoin="round"/>
<path d="M79.742 36.2266H81.4351V33.3808H79.742V36.2266Z" fill="white" stroke="#313952" stroke-width="0.2" stroke-linecap="round" stroke-linejoin="round"/>
<path d="M65.2111 42.9258H60.0635V45.7716H65.2111V42.9258Z" fill="white" stroke="#313952" stroke-width="0.2" stroke-linecap="round" stroke-linejoin="round"/>
<path d="M65.0623 43.0342H62.7881V45.6637H65.0623V43.0342Z" fill="white"/>
<path d="M64.9129 43.142V45.5575H62.9367V43.142H64.9129ZM65.211 42.9258H62.6387V45.7737H65.211V42.9258Z" fill="#313952"/>
<path d="M50.7673 42.9258H42.8208V48.3859H50.7673V42.9258Z" fill="white" stroke="#313952" stroke-width="0.2" stroke-linecap="round" stroke-linejoin="round"/>
<path d="M45.4458 42.9258V48.3859" stroke="#313952" stroke-width="0.2" stroke-linecap="round" stroke-linejoin="round"/>
<path d="M50.4712 43.142V48.1697H48.3996V43.142H50.4712ZM50.7693 42.9258H48.1016V48.3859H50.7693V42.9258Z" fill="#313952"/>
<path d="M51.3984 48.3862H40.1255V49.0984H51.3984V48.3862Z" fill="#5E6783" stroke="#313952" stroke-width="0.2" stroke-linecap="round" stroke-linejoin="round"/>
<path d="M40.1255 46.2583H51.3984" stroke="#313952" stroke-width="0.2" stroke-linecap="round" stroke-linejoin="round"/>
<path d="M40.1255 46.8057H51.3984" stroke="#313952" stroke-width="0.2" stroke-linecap="round" stroke-linejoin="round"/>
<path d="M40.1255 47.3521H51.3984" stroke="#313952" stroke-width="0.2" stroke-linecap="round" stroke-linejoin="round"/>
<path d="M40.1255 47.8994H51.3984" stroke="#313952" stroke-width="0.2" stroke-linecap="round" stroke-linejoin="round"/>
<path d="M51.3984 45.772H40.1255V48.3864H51.3984V45.772Z" stroke="#313952" stroke-width="0.2" stroke-linecap="round" stroke-linejoin="round"/>
<path d="M56.1828 42.9258H54.4897V45.7716H56.1828V42.9258Z" fill="white" stroke="#313952" stroke-width="0.2" stroke-linecap="round" stroke-linejoin="round"/>
<path d="M70.7132 45.772H75.8608V42.9262H70.7132V45.772Z" fill="white" stroke="#313952" stroke-width="0.2" stroke-linecap="round" stroke-linejoin="round"/>
<path d="M73.1366 43.0342H70.8623V45.6637H73.1366V43.0342Z" fill="white"/>
<path d="M72.9902 43.142V45.5575H71.008V43.142H72.9872M73.2853 42.9258H70.71V45.7737H73.2853V42.9258Z" fill="#313952"/>
<path d="M85.157 48.3862H93.1035V42.9261H85.157V48.3862Z" fill="white" stroke="#313952" stroke-width="0.2" stroke-linecap="round" stroke-linejoin="round"/>
<path d="M90.4785 42.9258V48.3859" stroke="#313952" stroke-width="0.2" stroke-linecap="round" stroke-linejoin="round"/>
<path d="M87.5244 43.142V48.1697H85.4558V43.142H87.5244ZM87.8224 42.9258H85.1577V48.3859H87.8224V42.9258Z" fill="#313952"/>
<path d="M84.5288 49.0977H95.8018V48.3855H84.5288V49.0977Z" fill="#5E6783" stroke="#313952" stroke-width="0.2" stroke-linecap="round" stroke-linejoin="round"/>
<path d="M95.7998 46.2583H84.5269" stroke="#313952" stroke-width="0.2" stroke-linecap="round" stroke-linejoin="round"/>
<path d="M95.7998 46.8057H84.5269" stroke="#313952" stroke-width="0.2" stroke-linecap="round" stroke-linejoin="round"/>
<path d="M95.7998 47.3521H84.5269" stroke="#313952" stroke-width="0.2" stroke-linecap="round" stroke-linejoin="round"/>
<path d="M95.7998 47.8994H84.5269" stroke="#313952" stroke-width="0.2" stroke-linecap="round" stroke-linejoin="round"/>
<path d="M84.5288 48.3862H95.8018V45.7718H84.5288V48.3862Z" stroke="#313952" stroke-width="0.2" stroke-linecap="round" stroke-linejoin="round"/>
<path d="M79.742 45.772H81.4351V42.9262H79.742V45.772Z" fill="white" stroke="#313952" stroke-width="0.2" stroke-linecap="round" stroke-linejoin="round"/>
<path d="M65.2111 52.4707H60.0635V55.3165H65.2111V52.4707Z" fill="white" stroke="#313952" stroke-width="0.2" stroke-linecap="round" stroke-linejoin="round"/>
<path d="M65.0623 52.5791H62.7881V55.2086H65.0623V52.5791Z" fill="white"/>
<path d="M64.9129 52.6938V55.1071H62.9367V52.6938H64.9129ZM65.211 52.4775H62.6387V55.3233H65.211V52.4775Z" fill="#313952"/>
<path d="M50.7673 52.4707H42.8208V57.9309H50.7673V52.4707Z" fill="white" stroke="#313952" stroke-width="0.2" stroke-linecap="round" stroke-linejoin="round"/>
<path d="M45.4458 52.4707V57.9309" stroke="#313952" stroke-width="0.2" stroke-linecap="round" stroke-linejoin="round"/>
<path d="M50.4712 52.6938V57.7214H48.3996V52.6938H50.4712ZM50.7693 52.4775H48.1016V57.9377H50.7693V52.4775Z" fill="#313952"/>
<path d="M51.3984 57.9312H40.1255V58.6433H51.3984V57.9312Z" fill="#5E6783" stroke="#313952" stroke-width="0.2" stroke-linecap="round" stroke-linejoin="round"/>
<path d="M40.1255 55.8032H51.3984" stroke="#313952" stroke-width="0.2" stroke-linecap="round" stroke-linejoin="round"/>
<path d="M40.1255 56.3506H51.3984" stroke="#313952" stroke-width="0.2" stroke-linecap="round" stroke-linejoin="round"/>
<path d="M40.1255 56.8975H51.3984" stroke="#313952" stroke-width="0.2" stroke-linecap="round" stroke-linejoin="round"/>
<path d="M40.1255 57.4448H51.3984" stroke="#313952" stroke-width="0.2" stroke-linecap="round" stroke-linejoin="round"/>
<path d="M51.3984 55.3169H40.1255V57.9313H51.3984V55.3169Z" stroke="#313952" stroke-width="0.2" stroke-linecap="round" stroke-linejoin="round"/>
<path d="M56.1828 52.4707H54.4897V55.3165H56.1828V52.4707Z" fill="white" stroke="#313952" stroke-width="0.2" stroke-linecap="round" stroke-linejoin="round"/>
<path d="M70.7132 55.3169H75.8608V52.4711H70.7132V55.3169Z" fill="white" stroke="#313952" stroke-width="0.2" stroke-linecap="round" stroke-linejoin="round"/>
<path d="M73.1366 52.5791H70.8623V55.2086H73.1366V52.5791Z" fill="white"/>
<path d="M72.9902 52.6938V55.1071H71.008V52.6938H72.9872M73.2853 52.4775H70.71V55.3233H73.2853V52.4775Z" fill="#313952"/>
<path d="M85.157 57.9312H93.1035V52.471H85.157V57.9312Z" fill="white" stroke="#313952" stroke-width="0.2" stroke-linecap="round" stroke-linejoin="round"/>
<path d="M90.4785 52.4707V57.9309" stroke="#313952" stroke-width="0.2" stroke-linecap="round" stroke-linejoin="round"/>
<path d="M87.5244 52.6938V57.7214H85.4558V52.6938H87.5244ZM87.8224 52.4775H85.1577V57.9377H87.8224V52.4775Z" fill="#313952"/>
<path d="M84.5288 58.6426H95.8018V57.9304H84.5288V58.6426Z" fill="#5E6783" stroke="#313952" stroke-width="0.2" stroke-linecap="round" stroke-linejoin="round"/>
<path d="M95.7998 55.8032H84.5269" stroke="#313952" stroke-width="0.2" stroke-linecap="round" stroke-linejoin="round"/>
<path d="M95.7998 56.3506H84.5269" stroke="#313952" stroke-width="0.2" stroke-linecap="round" stroke-linejoin="round"/>
<path d="M95.7998 56.8975H84.5269" stroke="#313952" stroke-width="0.2" stroke-linecap="round" stroke-linejoin="round"/>
<path d="M95.7998 57.4448H84.5269" stroke="#313952" stroke-width="0.2" stroke-linecap="round" stroke-linejoin="round"/>
<path d="M84.5288 57.9312H95.8018V55.3168H84.5288V57.9312Z" stroke="#313952" stroke-width="0.2" stroke-linecap="round" stroke-linejoin="round"/>
<path d="M79.742 55.3169H81.4351V52.4711H79.742V55.3169Z" fill="white" stroke="#313952" stroke-width="0.2" stroke-linecap="round" stroke-linejoin="round"/>
<path d="M65.2111 62.0161H60.0635V64.8619H65.2111V62.0161Z" fill="white" stroke="#313952" stroke-width="0.2" stroke-linecap="round" stroke-linejoin="round"/>
<path d="M65.0623 62.124H62.7881V64.7535H65.0623V62.124Z" fill="white"/>
<path d="M64.9129 62.2324V64.6456H62.9367V62.2324H64.9129ZM65.211 62.0161H62.6387V64.8619H65.211V62.0161Z" fill="#313952"/>
<path d="M50.7673 62.0161H42.8208V67.4763H50.7673V62.0161Z" fill="white" stroke="#313952" stroke-width="0.2" stroke-linecap="round" stroke-linejoin="round"/>
<path d="M45.4458 62.0161V67.4763" stroke="#313952" stroke-width="0.2" stroke-linecap="round" stroke-linejoin="round"/>
<path d="M50.4712 62.2324V67.26H48.3996V62.2324H50.4712ZM50.7693 62.0161H48.1016V67.4763H50.7693V62.0161Z" fill="#313952"/>
<path d="M51.3984 67.4761H40.1255V68.1883H51.3984V67.4761Z" fill="#5E6783" stroke="#313952" stroke-width="0.2" stroke-linecap="round" stroke-linejoin="round"/>
<path d="M40.1255 65.3481H51.3984" stroke="#313952" stroke-width="0.2" stroke-linecap="round" stroke-linejoin="round"/>
<path d="M40.1255 65.895H51.3984" stroke="#313952" stroke-width="0.2" stroke-linecap="round" stroke-linejoin="round"/>
<path d="M40.1255 66.4424H51.3984" stroke="#313952" stroke-width="0.2" stroke-linecap="round" stroke-linejoin="round"/>
<path d="M40.1255 66.9897H51.3984" stroke="#313952" stroke-width="0.2" stroke-linecap="round" stroke-linejoin="round"/>
<path d="M51.3984 64.8618H40.1255V67.4762H51.3984V64.8618Z" stroke="#313952" stroke-width="0.2" stroke-linecap="round" stroke-linejoin="round"/>
<path d="M56.1828 62.0161H54.4897V64.8619H56.1828V62.0161Z" fill="white" stroke="#313952" stroke-width="0.2" stroke-linecap="round" stroke-linejoin="round"/>
<path d="M70.7132 64.8618H75.8608V62.016H70.7132V64.8618Z" fill="white" stroke="#313952" stroke-width="0.2" stroke-linecap="round" stroke-linejoin="round"/>
<path d="M73.1366 62.124H70.8623V64.7535H73.1366V62.124Z" fill="white"/>
<path d="M72.9902 62.2324V64.6456H71.008V62.2324H72.9872M73.2853 62.0161H70.71V64.8619H73.2853V62.0161Z" fill="#313952"/>
<path d="M85.157 67.4761H93.1035V62.0159H85.157V67.4761Z" fill="white" stroke="#313952" stroke-width="0.2" stroke-linecap="round" stroke-linejoin="round"/>
<path d="M90.4785 62.0161V67.4763" stroke="#313952" stroke-width="0.2" stroke-linecap="round" stroke-linejoin="round"/>
<path d="M87.5244 62.2324V67.26H85.4558V62.2324H87.5244ZM87.8224 62.0161H85.1577V67.4763H87.8224V62.0161Z" fill="#313952"/>
<path d="M84.5288 68.1875H95.8018V67.4753H84.5288V68.1875Z" fill="#5E6783" stroke="#313952" stroke-width="0.2" stroke-linecap="round" stroke-linejoin="round"/>
<path d="M95.7998 65.3481H84.5269" stroke="#313952" stroke-width="0.2" stroke-linecap="round" stroke-linejoin="round"/>
<path d="M95.7998 65.895H84.5269" stroke="#313952" stroke-width="0.2" stroke-linecap="round" stroke-linejoin="round"/>
<path d="M95.7998 66.4424H84.5269" stroke="#313952" stroke-width="0.2" stroke-linecap="round" stroke-linejoin="round"/>
<path d="M95.7998 66.9897H84.5269" stroke="#313952" stroke-width="0.2" stroke-linecap="round" stroke-linejoin="round"/>
<path d="M84.5288 67.4761H95.8018V64.8617H84.5288V67.4761Z" stroke="#313952" stroke-width="0.2" stroke-linecap="round" stroke-linejoin="round"/>
<path d="M79.742 64.8618H81.4351V62.016H79.742V64.8618Z" fill="white" stroke="#313952" stroke-width="0.2" stroke-linecap="round" stroke-linejoin="round"/>
<path d="M65.2111 71.5605H60.0635V74.4063H65.2111V71.5605Z" fill="white" stroke="#313952" stroke-width="0.2" stroke-linecap="round" stroke-linejoin="round"/>
<path d="M65.0623 71.6689H62.7881V74.2985H65.0623V71.6689Z" fill="white"/>
<path d="M64.9129 71.7768V74.1901H62.9367V71.7768H64.9129ZM65.211 71.5605H62.6387V74.4063H65.211V71.5605Z" fill="#313952"/>
<path d="M50.7673 71.5605H42.8208V77.0207H50.7673V71.5605Z" fill="white" stroke="#313952" stroke-width="0.2" stroke-linecap="round" stroke-linejoin="round"/>
<path d="M45.4458 71.5605V77.0207" stroke="#313952" stroke-width="0.2" stroke-linecap="round" stroke-linejoin="round"/>
<path d="M50.4712 71.7768V76.8045H48.3996V71.7768H50.4712ZM50.7693 71.5605H48.1016V77.0207H50.7693V71.5605Z" fill="#313952"/>
<path d="M51.3984 77.021H40.1255V77.7332H51.3984V77.021Z" fill="#5E6783" stroke="#313952" stroke-width="0.2" stroke-linecap="round" stroke-linejoin="round"/>
<path d="M40.1255 74.8931H51.3984" stroke="#313952" stroke-width="0.2" stroke-linecap="round" stroke-linejoin="round"/>
<path d="M40.1255 75.4399H51.3984" stroke="#313952" stroke-width="0.2" stroke-linecap="round" stroke-linejoin="round"/>
<path d="M40.1255 75.9873H51.3984" stroke="#313952" stroke-width="0.2" stroke-linecap="round" stroke-linejoin="round"/>
<path d="M40.1255 76.5342H51.3984" stroke="#313952" stroke-width="0.2" stroke-linecap="round" stroke-linejoin="round"/>
<path d="M51.3984 74.4067H40.1255V77.0211H51.3984V74.4067Z" stroke="#313952" stroke-width="0.2" stroke-linecap="round" stroke-linejoin="round"/>
<path d="M56.1828 71.5605H54.4897V74.4063H56.1828V71.5605Z" fill="white" stroke="#313952" stroke-width="0.2" stroke-linecap="round" stroke-linejoin="round"/>
<path d="M70.7132 74.4067H75.8608V71.561H70.7132V74.4067Z" fill="white" stroke="#313952" stroke-width="0.2" stroke-linecap="round" stroke-linejoin="round"/>
<path d="M73.1366 71.6689H70.8623V74.2985H73.1366V71.6689Z" fill="white"/>
<path d="M72.9902 71.7768V74.1901H71.008V71.7768H72.9872M73.2853 71.5605H70.71V74.4063H73.2853V71.5605Z" fill="#313952"/>
<path d="M85.157 77.021H93.1035V71.5608H85.157V77.021Z" fill="white" stroke="#313952" stroke-width="0.2" stroke-linecap="round" stroke-linejoin="round"/>
<path d="M90.4785 71.5605V77.0207" stroke="#313952" stroke-width="0.2" stroke-linecap="round" stroke-linejoin="round"/>
<path d="M87.5244 71.7768V76.8045H85.4558V71.7768H87.5244ZM87.8224 71.5605H85.1577V77.0207H87.8224V71.5605Z" fill="#313952"/>
<path d="M84.5288 77.7324H95.8018V77.0202H84.5288V77.7324Z" fill="#5E6783" stroke="#313952" stroke-width="0.2" stroke-linecap="round" stroke-linejoin="round"/>
<path d="M95.7998 74.8931H84.5269" stroke="#313952" stroke-width="0.2" stroke-linecap="round" stroke-linejoin="round"/>
<path d="M95.7998 75.4399H84.5269" stroke="#313952" stroke-width="0.2" stroke-linecap="round" stroke-linejoin="round"/>
<path d="M95.7998 75.9873H84.5269" stroke="#313952" stroke-width="0.2" stroke-linecap="round" stroke-linejoin="round"/>
<path d="M95.7998 76.5342H84.5269" stroke="#313952" stroke-width="0.2" stroke-linecap="round" stroke-linejoin="round"/>
<path d="M84.5288 77.021H95.8018V74.4066H84.5288V77.021Z" stroke="#313952" stroke-width="0.2" stroke-linecap="round" stroke-linejoin="round"/>
<path d="M79.742 74.4067H81.4351V71.561H79.742V74.4067Z" fill="white" stroke="#313952" stroke-width="0.2" stroke-linecap="round" stroke-linejoin="round"/>
<path d="M77.2438 25.1226H58.6802V27.9683H77.2438V25.1226Z" fill="white"/>
<mask id="mask4_883_67093" style="mask-type:luminance" maskUnits="userSpaceOnUse" x="58" y="25" width="20" height="3">
<path d="M77.2429 25.1226H58.6792V27.9683H77.2429V25.1226Z" fill="white"/>
</mask>
<g mask="url(#mask4_883_67093)">
<path opacity="0.3" d="M77.2458 25.1226H58.6792V25.9387H77.2458V25.1226Z" fill="black"/>
</g>
<path d="M77.2438 25.1226H58.6802V27.9683H77.2438V25.1226Z" stroke="#313952" stroke-width="0.2" stroke-linecap="round" stroke-linejoin="round"/>
<path d="M60.7715 25.1226V27.9683" stroke="#313952" stroke-width="0.2" stroke-linecap="round" stroke-linejoin="round"/>
<path d="M63.1689 25.1226V27.9683" stroke="#313952" stroke-width="0.2" stroke-linecap="round" stroke-linejoin="round"/>
<path d="M65.5654 25.1226V27.9683" stroke="#313952" stroke-width="0.2" stroke-linecap="round" stroke-linejoin="round"/>
<path d="M67.9619 25.1226V27.9683" stroke="#313952" stroke-width="0.2" stroke-linecap="round" stroke-linejoin="round"/>
<path d="M70.3584 25.1226V27.9683" stroke="#313952" stroke-width="0.2" stroke-linecap="round" stroke-linejoin="round"/>
<path d="M72.7549 25.1226V27.9683" stroke="#313952" stroke-width="0.2" stroke-linecap="round" stroke-linejoin="round"/>
<path d="M75.1543 25.1226V27.9683" stroke="#313952" stroke-width="0.2" stroke-linecap="round" stroke-linejoin="round"/>
<path d="M79.5897 23.8684H56.3374L59.6251 20.9404H76.299L79.5897 23.8684Z" fill="#5E6783"/>
<mask id="mask5_883_67093" style="mask-type:luminance" maskUnits="userSpaceOnUse" x="56" y="20" width="24" height="4">
<path d="M79.5897 23.8684H56.3374L59.6251 20.9404H76.299L79.5897 23.8684Z" fill="white"/>
</mask>
<g mask="url(#mask5_883_67093)">
<path opacity="0.1" d="M79.5897 23.8684H56.3374L59.6251 20.9404H76.299L79.5897 23.8684Z" fill="black"/>
</g>
<path d="M79.5897 23.8684H56.3374L59.6251 20.9404H76.299L79.5897 23.8684Z" stroke="#313952" stroke-width="0.2" stroke-linecap="round" stroke-linejoin="round"/>
<path d="M79.9066 23.5132H56.0225V24.221H79.9066V23.5132Z" fill="#5E6783"/>
<mask id="mask6_883_67093" style="mask-type:luminance" maskUnits="userSpaceOnUse" x="56" y="23" width="24" height="2">
<path d="M79.9047 23.5142H56.0205V24.222H79.9047V23.5142Z" fill="white"/>
</mask>
<g mask="url(#mask6_883_67093)">
<path opacity="0.2" d="M79.9047 23.5142H56.0205V24.222H79.9047V23.5142Z" fill="black"/>
</g>
<path d="M79.9066 23.5132H56.0225V24.221H79.9066V23.5132Z" stroke="#313952" stroke-width="0.2" stroke-linecap="round" stroke-linejoin="round"/>
<path opacity="0.2" d="M60.9424 29.311H62.6802V28.8045H60.9424V29.311Z" fill="black"/>
<path opacity="0.2" d="M62.334 29.8887H64.0718V29.3821H62.334V29.8887Z" fill="black"/>
<path opacity="0.2" d="M67.2203 32.7407H68.958V32.2342H67.2203V32.7407Z" fill="black"/>
<path opacity="0.2" d="M66.3492 33.4087H68.0869V32.9022H66.3492V33.4087Z" fill="black"/>
<path opacity="0.2" d="M60.0757 37.9287H61.8135V37.4222H60.0757V37.9287Z" fill="black"/>
<path opacity="0.2" d="M61.0259 38.5576H62.7637V38.0511H61.0259V38.5576Z" fill="black"/>
<path opacity="0.2" d="M71.1451 39.1587H72.8828V38.6522H71.1451V39.1587Z" fill="black"/>
<path opacity="0.2" d="M70.2276 39.8335H71.9653V39.327H70.2276V39.8335Z" fill="black"/>
<path opacity="0.2" d="M60.6236 42.4805H62.3613V41.9739H60.6236V42.4805Z" fill="black"/>
<path opacity="0.2" d="M62.022 37.9287H63.7598V37.4222H62.022V37.9287Z" fill="black"/>
<path opacity="0.2" d="M69.27 52.103H67.5322V52.6096H69.27V52.103Z" fill="black"/>
<path opacity="0.2" d="M61.6191 51.5239H59.8813V52.0305H61.6191V51.5239Z" fill="black"/>
<path opacity="0.2" d="M63.8906 48.2412H62.1528V48.7478H63.8906V48.2412Z" fill="black"/>
<path opacity="0.2" d="M64.7573 47.5728H63.0195V48.0793H64.7573V47.5728Z" fill="black"/>
<path opacity="0.2" d="M70.1386 43.4863H68.4009V43.9929H70.1386V43.4863Z" fill="black"/>
<path opacity="0.2" d="M69.1865 42.8545H67.4487V43.361H69.1865V42.8545Z" fill="black"/>
<path opacity="0.2" d="M73.3359 30.7598H71.5981V31.2663H73.3359V30.7598Z" fill="black"/>
<path opacity="0.2" d="M74.2548 30.0854H72.5171V30.592H74.2548V30.0854Z" fill="black"/>
<path opacity="0.2" d="M73.7368 41.4292H71.999V41.9357H73.7368V41.4292Z" fill="black"/>
<path opacity="0.2" d="M68.1913 43.4863H66.4536V43.9929H68.1913V43.4863Z" fill="black"/>
<path opacity="0.2" d="M75.3403 48.5483H73.6025V49.0549H75.3403V48.5483Z" fill="black"/>
<path opacity="0.2" d="M73.9467 47.9692H72.209V48.4758H73.9467V47.9692Z" fill="black"/>
<path opacity="0.2" d="M69.3623 75.1763H67.6245V75.6828H69.3623V75.1763Z" fill="black"/>
<path opacity="0.2" d="M73.5087 79.2632H71.771V79.7697H73.5087V79.2632Z" fill="black"/>
<path opacity="0.2" d="M76.8027 70.8516H75.0649V71.3581H76.8027V70.8516Z" fill="black"/>
<path opacity="0.2" d="M75.8525 70.2227H74.1147V70.7292H75.8525V70.2227Z" fill="black"/>
<path opacity="0.2" d="M62.4536 70.4863H60.7158V70.9929H62.4536V70.4863Z" fill="black"/>
<path opacity="0.2" d="M63.372 69.8115H61.6343V70.3181H63.372V69.8115Z" fill="black"/>
<path opacity="0.2" d="M76.2548 66.2998H74.5171V66.8063H76.2548V66.2998Z" fill="black"/>
<path opacity="0.2" d="M74.8564 70.8516H73.1187V71.3581H74.8564V70.8516Z" fill="black"/>
<path opacity="0.2" d="M66.5972 70.8844C68.2872 70.8712 70.0279 70.8712 71.6643 70.8844H66.5972Z" fill="black"/>
<path opacity="0.2" d="M63.7354 56.0278H65.4731V55.5213H63.7354V56.0278Z" fill="black"/>
<path opacity="0.2" d="M65.1246 56.6079H66.8623V56.1014H65.1246V56.6079Z" fill="black"/>
<path opacity="0.2" d="M69.1158 59.8901H70.8535V59.3836H69.1158V59.8901Z" fill="black"/>
<path opacity="0.2" d="M68.2447 67.2622H69.9824V66.7557H68.2447V67.2622Z" fill="black"/>
<path opacity="0.2" d="M62.8653 63.7822H64.603V63.2757H62.8653V63.7822Z" fill="black"/>
<path opacity="0.2" d="M63.8199 64.4116H65.5576V63.9051H63.8199V64.4116Z" fill="black"/>
<path opacity="0.2" d="M62.3502 77.5879H64.0879V77.0813H62.3502V77.5879Z" fill="black"/>
<path opacity="0.2" d="M61.4312 78.2627H63.1689V77.7562H61.4312V78.2627Z" fill="black"/>
<path opacity="0.2" d="M59.2676 65.835H61.0054V65.3284H59.2676V65.835Z" fill="black"/>
<path opacity="0.2" d="M64.8106 63.7822H66.5483V63.2757H64.8106V63.7822Z" fill="black"/>
<path opacity="0.1" d="M58.8975 75.8638H60.6353V75.3572H58.8975V75.8638Z" fill="black"/>
<path opacity="0.1" d="M60.292 75.2847H62.0298V74.7781H60.292V75.2847Z" fill="black"/>
<path opacity="0.1" d="M73.4918 76.4956H75.2295V75.9891H73.4918V76.4956Z" fill="black"/>
<path opacity="0.1" d="M72.6207 75.8271H74.3584V75.3206H72.6207V75.8271Z" fill="black"/>
<path opacity="0.1" d="M72.1055 68.8906H73.8433V68.3841H72.1055V68.8906Z" fill="black"/>
<path opacity="0.1" d="M73.0591 68.2637H74.7969V67.7571H73.0591V68.2637Z" fill="black"/>
<path opacity="0.1" d="M66.8765 72.1187H68.6143V71.6121H66.8765V72.1187Z" fill="black"/>
<path opacity="0.1" d="M65.9581 71.4443H67.6958V70.9378H65.9581V71.4443Z" fill="black"/>
<path opacity="0.1" d="M68.0128 78.4893H69.7505V77.9827H68.0128V78.4893Z" fill="black"/>
<path opacity="0.1" d="M74.0518 68.8906H75.7896V68.3841H74.0518V68.8906Z" fill="black"/>
<path opacity="0.1" d="M69.27 55.9653H67.5322V56.4719H69.27V55.9653Z" fill="black"/>
<path opacity="0.1" d="M61.6191 56.5449H59.8813V57.0515H61.6191V56.5449Z" fill="black"/>
<path opacity="0.1" d="M63.1997 59.1851H61.4619V59.6916H63.1997V59.1851Z" fill="black"/>
<path opacity="0.1" d="M64.0654 59.8555H62.3276V60.362H64.0654V59.8555Z" fill="black"/>
<path opacity="0.1" d="M65.8691 66.7798H64.1313V67.2863H65.8691V66.7798Z" fill="black"/>
<path opacity="0.1" d="M64.9189 67.4092H63.1812V67.9157H64.9189V67.4092Z" fill="black"/>
<path opacity="0.1" d="M60.934 61.3564H59.1963V61.863H60.934V61.3564Z" fill="black"/>
<path opacity="0.1" d="M63.9233 66.7798H62.1855V67.2863H63.9233V66.7798Z" fill="black"/>
<path opacity="0.1" d="M75.3403 59.5205H73.6025V60.027H75.3403V59.5205Z" fill="black"/>
<path opacity="0.1" d="M73.9467 60.1001H72.209V60.6066H73.9467V60.1001Z" fill="black"/>
<path opacity="0.1" d="M62.1528 30.7598H60.415V31.2663H62.1528V30.7598Z" fill="black"/>
<path opacity="0.1" d="M75.018 28.9155H73.2803V29.4221H75.018V28.9155Z" fill="black"/>
<path opacity="0.1" d="M76.0961 36.9014H74.3584V37.4079H76.0961V36.9014Z" fill="black"/>
<path opacity="0.1" d="M75.143 37.5303H73.4053V38.0368H75.143V37.5303Z" fill="black"/>
<path opacity="0.1" d="M67.9169 29.8325H66.1792V30.3391H67.9169V29.8325Z" fill="black"/>
<path opacity="0.1" d="M68.8359 30.5068H67.0981V31.0134H68.8359V30.5068Z" fill="black"/>
<path opacity="0.1" d="M76.2548 41.7671H74.5171V42.2736H76.2548V41.7671Z" fill="black"/>
<path opacity="0.1" d="M74.1494 36.9014H72.4116V37.4079H74.1494V36.9014Z" fill="black"/>
<path opacity="0.1" d="M61.6192 40.9062H63.3569V40.3997H61.6192V40.9062Z" fill="black"/>
<path opacity="0.1" d="M63.0088 40.3267H64.7466V39.8201H63.0088V40.3267Z" fill="black"/>
<path opacity="0.1" d="M65.7232 50.7173H67.4609V50.2107H65.7232V50.7173Z" fill="black"/>
<path opacity="0.1" d="M68.2447 41.8164H69.9824V41.3099H68.2447V41.8164Z" fill="black"/>
<path opacity="0.1" d="M66.9474 50.1617L68.6836 50.2153L68.7133 49.7093L66.9772 49.6556L66.9474 50.1617Z" fill="black"/>
<path opacity="0.1" d="M67.6705 49.6551L69.4082 49.7056L69.4361 49.199L67.6984 49.1486L67.6705 49.6551Z" fill="black"/>
<path opacity="0.1" d="M67.3716 36.7021H69.1094V36.1956H67.3716V36.7021Z" fill="black"/>
<path opacity="0.1" d="M66.4532 36.0278H68.1909V35.5213H66.4532V36.0278Z" fill="black"/>
<path opacity="0.1" d="M66.863 46.4673L68.5991 46.521L68.6288 46.0149L66.8927 45.9612L66.863 46.4673Z" fill="black"/>
<path opacity="0.1" d="M68.8908 50.2203L70.627 50.2739L70.6567 49.7678L68.9205 49.7142L68.8908 50.2203Z" fill="black"/>
<path d="M52.0244 32.4854V81.4256" stroke="#313952" stroke-width="0.2" stroke-linecap="round" stroke-linejoin="round"/>
<path d="M83.9893 32.4854V81.4256" stroke="#313952" stroke-width="0.2" stroke-linecap="round" stroke-linejoin="round"/>
<path d="M74.3882 21.5654H75.3867" stroke="#313952" stroke-width="0.2" stroke-linecap="round" stroke-linejoin="round"/>
<path d="M62.9609 21.5542C65.8939 21.5542 68.8269 21.5542 71.7599 21.5542" stroke="#313952" stroke-width="0.2" stroke-linecap="round" stroke-linejoin="round"/>
<path d="M58.9248 21.5654H61.974" stroke="#313952" stroke-width="0.2" stroke-linecap="round" stroke-linejoin="round"/>
<path d="M65.076 22.188H63.6304" stroke="#313952" stroke-width="0.2" stroke-linecap="round" stroke-linejoin="round"/>
<path d="M77.5845 22.188C74.7588 22.1968 71.9331 22.1968 69.1074 22.188" stroke="#313952" stroke-width="0.2" stroke-linecap="round" stroke-linejoin="round"/>
<path d="M76.9106 22.9062H77.5843" stroke="#313952" stroke-width="0.2" stroke-linecap="round" stroke-linejoin="round"/>
<path d="M66.1162 22.9062H71.9285" stroke="#313952" stroke-width="0.2" stroke-linecap="round" stroke-linejoin="round"/>
<path d="M60.0327 22.9062H65.2072" stroke="#313952" stroke-width="0.2" stroke-linecap="round" stroke-linejoin="round"/>
<path d="M57.417 22.9062H58.2814" stroke="#313952" stroke-width="0.2" stroke-linecap="round" stroke-linejoin="round"/>
<path d="M67.21 22.188H67.6839" stroke="#313952" stroke-width="0.2" stroke-linecap="round" stroke-linejoin="round"/>
<path d="M40.8837 42.9975L38.2577 41.5811V42.3487H25.405C25.0098 42.3487 24.6307 42.2348 24.3512 42.0321C24.0717 41.8293 23.9147 41.5543 23.9147 41.2675V39.7192H34.2606C34.5621 39.7186 34.8509 39.6314 35.0638 39.4765C35.2767 39.3217 35.3963 39.1119 35.3963 38.8932V35.1327C35.3963 34.914 35.2767 34.7042 35.0638 34.5493C34.8509 34.3945 34.5621 34.3072 34.2606 34.3066H11.7744C11.625 34.3066 11.4771 34.328 11.3391 34.3696C11.2011 34.4111 11.0758 34.472 10.9703 34.5487C10.8648 34.6255 10.7812 34.7165 10.7243 34.8167C10.6674 34.9169 10.6383 35.0243 10.6387 35.1327V38.8867C10.6372 38.9956 10.6654 39.1037 10.7217 39.2046C10.7781 39.3056 10.8615 39.3974 10.9671 39.4749C11.0727 39.5523 11.1984 39.6137 11.337 39.6557C11.4756 39.6976 11.6242 39.7192 11.7744 39.7192H22.1263V41.5897C22.1263 42.1365 22.4255 42.6609 22.9581 43.0477C23.4907 43.4345 24.2132 43.6521 24.9669 43.6527H38.2637V44.4225L40.8837 42.9975Z" fill="white" stroke="#313952" stroke-width="0.2" stroke-linecap="round" stroke-linejoin="round"/>
<path d="M14.5254 35.8096L15.0619 36.5989L16.2631 36.7264L15.3957 37.3406L15.6014 38.2099L14.5254 37.8012L13.4494 38.2099L13.655 37.3406L12.7847 36.7264L13.9859 36.5989L14.5254 35.8096Z" fill="#5E6783" stroke="#313952" stroke-width="0.2" stroke-linecap="round" stroke-linejoin="round"/>
<path d="M18.7695 35.8096L19.306 36.5989L20.5102 36.7264L19.6399 37.3406L19.8455 38.2099L18.7695 37.8012L17.6935 38.2099L17.8992 37.3406L17.0288 36.7264L18.23 36.5989L18.7695 35.8096Z" fill="#5E6783" stroke="#313952" stroke-width="0.2" stroke-linecap="round" stroke-linejoin="round"/>
<path d="M23.0137 35.8096L23.5502 36.5989L24.7544 36.7264L23.884 37.3406L24.0897 38.2099L23.0137 37.8012L21.9376 38.2099L22.1433 37.3406L21.2729 36.7264L22.4742 36.5989L23.0137 35.8096Z" fill="#5E6783" stroke="#313952" stroke-width="0.2" stroke-linecap="round" stroke-linejoin="round"/>
<path d="M27.2588 35.8096L27.7983 36.5989L28.9995 36.7264L28.1291 37.3406L28.3348 38.2099L27.2588 37.8012L26.1828 38.2099L26.3884 37.3406L25.5181 36.7264L26.7223 36.5989L27.2588 35.8096Z" fill="#5E6783" stroke="#313952" stroke-width="0.2" stroke-linecap="round" stroke-linejoin="round"/>
<path d="M31.5029 35.8096L32.0424 36.5989L33.2436 36.7264L32.3733 37.3406L32.5789 38.2099L31.5029 37.8012L30.4269 38.2099L30.6326 37.3406L29.7622 36.7264L30.9664 36.5989L31.5029 35.8096Z" fill="#5E6783" stroke="#313952" stroke-width="0.2" stroke-linecap="round" stroke-linejoin="round"/>
<path d="M125.431 37.5332V45.6207C125.431 45.6207 99.9726 51.7642 94.825 53.5828C89.6773 55.4014 84.1422 59.1814 84.1422 59.1814C82.2942 60.5697 75.4982 61.7179 75.8291 60.4334C75.9376 59.9674 75.9517 59.4924 75.8708 59.0235C75.8058 58.5897 75.682 58.1617 75.5012 57.7455C74.9051 58.5586 73.5876 59.4755 73.5876 59.4755C73.5876 60.4313 72.7948 62.012 72.7948 62.012L72.4967 65.074C73.8499 66.845 72.6576 67.5608 72.145 67.5132C71.6323 67.4657 71.0511 66.8169 71.0511 66.8169L70.285 66.8926C70.285 66.8926 69.361 68.2787 68.6337 68.3285C67.9064 68.3782 67.5011 67.6105 67.5011 67.6105C67.5011 67.6105 67.1166 68.136 66.1955 67.8268C65.957 67.717 65.7716 67.556 65.665 67.3662C65.0897 66.5293 64.7708 64.8729 64.6784 64.2696C64.5442 63.5041 64.4131 59.962 64.4131 59.5317C64.4131 59.1014 67.7127 55.423 68.7023 54.171C69.6919 52.9189 70.4162 51.3966 71.7336 50.8711C73.0511 50.3456 74.5057 50.7738 78.7919 50.5835C83.0781 50.3932 86.7741 49.7704 88.7146 49.2428C90.655 48.7152 91.1259 47.9994 93.9635 47.5129C96.8011 47.0263 125.234 37.5829 125.431 37.5332Z" fill="white"/>
<path opacity="0.4" d="M76.4124 57.4513C76.2877 57.9833 76.1063 58.5074 75.8699 59.0191C75.8049 58.5853 75.6811 58.1572 75.5003 57.7411C74.9042 58.5541 73.5867 59.471 73.5867 59.471C73.5867 60.4268 72.7938 62.0076 72.7938 62.0076L72.4958 65.0696C73.849 66.8406 72.6567 67.5564 72.1441 67.5088C71.6314 67.4612 71.0502 66.8125 71.0502 66.8125L70.2841 66.8882C70.2841 66.8882 69.3601 68.2743 68.6328 68.324C67.9055 68.3738 67.5002 67.6061 67.5002 67.6061C67.5002 67.6061 67.1157 68.1316 66.1946 67.8223C65.9561 67.7125 65.7706 67.5515 65.6641 67.3617C65.9949 67.4699 66.3943 67.3617 66.755 66.6568C66.9977 66.1805 67.0891 65.6707 67.0225 65.1653C66.956 64.6598 66.7331 64.1718 66.3705 63.7375C66.3705 63.7375 67.7416 61.6097 67.685 61.095C67.6283 60.5803 66.8683 60.0851 67.1484 59.7348C67.4286 59.3845 68.1052 60.0116 68.6388 59.6137C69.1723 59.2158 71.1396 56.9799 71.0591 56.7269C70.9786 56.4739 71.5569 56.489 71.8579 56.2944C72.159 56.0998 72.0904 55.1548 72.4958 55.2716C72.9011 55.3883 73.3333 55.5613 73.3333 55.5613C73.374 55.3461 73.374 55.1278 73.3333 54.9126C73.2558 54.8045 74.77 55.9289 75.2112 55.9744C75.6523 56.0198 76.5823 56.3074 76.4124 57.4513Z" fill="#5E6783"/>
<path d="M125.429 37.5332C125.233 37.5829 96.815 47.0263 93.9684 47.5064C91.1219 47.9864 90.6569 48.7022 88.7194 49.2363C86.782 49.7704 83.086 50.3846 78.7968 50.577C74.5076 50.7695 73.059 50.337 71.7385 50.8646C70.4181 51.3923 69.6938 52.9211 68.7072 54.1645C67.7206 55.4079 64.418 59.0949 64.418 59.5252C64.418 59.9555 64.5491 63.4976 64.6832 64.2631C64.8174 65.0286 65.2794 67.5068 66.2004 67.8203C67.1214 68.1339 67.506 67.6041 67.506 67.6041C67.506 67.6041 67.9143 68.3696 68.6386 68.322C69.3629 68.2744 70.2899 66.8861 70.2899 66.8861L71.0559 66.8104C71.0559 66.8104 71.6342 67.4592 72.1498 67.5068C72.6655 67.5543 73.8548 66.8386 72.5016 65.0675L72.7996 62.0055C72.7996 62.0055 73.5895 60.4248 73.5895 59.469C73.5895 59.469 74.91 58.5586 75.5031 57.739C75.5031 57.739 76.1618 59.1424 75.831 60.4269C75.5001 61.7114 82.2961 60.5632 84.1441 59.1749" stroke="#313952" stroke-width="0.2" stroke-linecap="round" stroke-linejoin="round"/>
<path d="M67.5054 67.615C67.5054 67.615 68.5993 65.4526 67.5054 64.1205C67.7335 63.8049 67.8972 63.4669 67.9912 63.1172C68.1432 62.542 68.492 60.9266 68.3906 60.6758C68.2893 60.4249 68.638 60.1373 68.638 60.1373C69.1013 59.8093 69.5159 59.4469 69.875 59.0561C70.5188 58.375 71.4101 57.1099 71.4101 57.1099C71.4101 57.1099 72.0539 56.9672 72.8438 56.2839C72.8438 56.2839 73.6843 56.1044 74.1314 56.2839" stroke="#313952" stroke-width="0.2" stroke-linecap="round" stroke-linejoin="round"/>
<path d="M75.7153 56.4302C75.7153 56.4302 76.1595 57.4638 75.7153 58.2574" stroke="#313952" stroke-width="0.2" stroke-linecap="round" stroke-linejoin="round"/>
<path d="M75.4996 57.7451C75.4996 57.7451 75.3178 56.9688 74.9214 56.7158" stroke="#313952" stroke-width="0.2" stroke-linecap="round" stroke-linejoin="round"/>
<path d="M71.4102 57.1118C71.4102 57.1118 72.367 58.008 74.3908 57.7461" stroke="#313952" stroke-width="0.2" stroke-linecap="round" stroke-linejoin="round"/>
<path d="M72.8941 58.2578C72.8941 58.2578 71.6064 60.0591 71.1057 60.4332L70.8076 61.6528" stroke="#313952" stroke-width="0.2" stroke-linecap="round" stroke-linejoin="round"/>
<path d="M68.8857 60.4336C69.1337 60.5173 69.4038 60.5607 69.6771 60.5607C69.9505 60.5607 70.2205 60.5173 70.4685 60.4336" stroke="#313952" stroke-width="0.2" stroke-linecap="round" stroke-linejoin="round"/>
<path d="M73.5866 59.4688C73.5866 59.4688 72.5821 60.1182 72.1499 59.9558" stroke="#313952" stroke-width="0.2" stroke-linecap="round" stroke-linejoin="round"/>
<path d="M72.1499 55.2886C72.5508 55.5466 72.7995 55.9067 72.8444 56.2941" stroke="#313952" stroke-width="0.2" stroke-linecap="round" stroke-linejoin="round"/>
<path d="M73.1481 54.5645C73.0914 54.6704 73.8336 55.5678 74.3791 55.9636" stroke="#313952" stroke-width="0.2" stroke-linecap="round" stroke-linejoin="round"/>
<path d="M67.1528 59.979C67.3707 60.0824 67.6175 60.1493 67.8752 60.1748C68.1329 60.2003 68.3953 60.1838 68.6432 60.1265" stroke="#313952" stroke-width="0.2" stroke-linecap="round" stroke-linejoin="round"/>
<path d="M66.7598 64.0021C66.7598 64.0021 67.5944 64.0476 67.7434 63.7266" stroke="#313952" stroke-width="0.2" stroke-linecap="round" stroke-linejoin="round"/>
<path d="M68.9923 70.324C70.2835 70.2336 71.2022 69.1976 71.0443 68.0101C70.8864 66.8225 69.7116 65.933 68.4204 66.0234C67.1292 66.1138 66.2105 67.1497 66.3684 68.3373C66.5263 69.5249 67.7011 70.4143 68.9923 70.324Z" stroke="#313952" stroke-width="0.2" stroke-linecap="round" stroke-linejoin="round"/>
<path d="M69.032 70.2271C68.8233 69.8915 68.4822 69.6084 68.0517 69.4134C67.6213 69.2184 67.1208 69.1204 66.6136 69.1317C66.1063 69.1431 65.6151 69.2633 65.202 69.4771C64.7889 69.6909 64.4725 69.9888 64.2927 70.3331L62.5848 73.6049C62.3441 74.0668 62.3662 74.5793 62.6462 75.0294C62.9263 75.4795 63.4413 75.8305 64.0781 76.0052C64.7149 76.1798 65.4212 76.1638 66.0416 75.9606C66.6621 75.7574 67.1459 75.3838 67.3866 74.9218L69.0916 71.6522C69.2117 71.4235 69.2682 71.1799 69.258 70.9353C69.2478 70.6908 69.1709 70.4501 69.032 70.2271ZM67.1005 70.2077C67.0203 70.1852 66.951 70.1459 66.9015 70.0949C66.852 70.0439 66.8245 69.9834 66.8224 69.921C66.8202 69.8586 66.8436 69.7972 66.8896 69.7444C66.9356 69.6917 67.0021 69.65 67.0807 69.6247C67.1593 69.5994 67.2464 69.5915 67.3312 69.6021C67.416 69.6126 67.4945 69.6412 67.5569 69.6841C67.6193 69.7271 67.6628 69.7825 67.6818 69.8433C67.7008 69.9042 67.6946 69.9678 67.6638 70.026C67.6224 70.1044 67.54 70.1678 67.4344 70.2022C67.3289 70.2366 67.2088 70.2394 67.1005 70.2098V70.2077Z" fill="#5E6783" stroke="#313952" stroke-width="0.2" stroke-linecap="round" stroke-linejoin="round"/>
<path d="M68.401 71.4618L66.696 74.7314C66.512 75.047 66.1668 75.2986 65.7326 75.4335C65.2985 75.5685 64.8092 75.5762 64.3674 75.4551C63.9256 75.334 63.5656 75.0934 63.3629 74.784C63.1602 74.4745 63.1305 74.1201 63.2802 73.7951L64.9851 70.5233C65.1335 70.2372 65.4164 69.9982 65.7839 69.8486C65.8768 70.0307 66.0225 70.1961 66.2111 70.3338C66.3998 70.4715 66.627 70.5782 66.8774 70.6467C67.1277 70.7151 67.3955 70.7438 67.6624 70.7307C67.9294 70.7177 68.1894 70.6632 68.4248 70.5709C68.5586 70.861 68.5501 71.1757 68.401 71.4618Z" fill="white" stroke="#313952" stroke-width="0.2" stroke-linecap="round" stroke-linejoin="round"/>
<path d="M66.2749 74.1018C66.1838 74.0996 66.0944 74.0834 66.0126 74.0542L65.6907 73.9656C65.4999 73.9115 65.3926 73.9396 65.3479 74.0456L65.3061 74.1278L66.1407 74.3592L66.0185 74.5927L63.9648 74.024L64.1526 73.6693C64.1665 73.6193 64.1965 73.5724 64.2403 73.5324C64.284 73.4925 64.3402 73.4606 64.4043 73.4395C64.4683 73.4184 64.5383 73.4086 64.6086 73.411C64.6788 73.4133 64.7473 73.4278 64.8084 73.4531L64.9693 73.4985C65.0559 73.5133 65.1342 73.5469 65.1939 73.5948C65.2535 73.6427 65.2916 73.7027 65.3032 73.7666C65.4313 73.6672 65.6012 73.6715 65.8188 73.7299L66.1348 73.8185C66.218 73.8463 66.3084 73.861 66.4001 73.8618L66.2749 74.1018ZM64.3792 73.8704L65.0111 74.0456L65.0588 73.9548C65.1064 73.8661 65.0796 73.7991 64.9157 73.7537L64.713 73.6974C64.5669 73.6564 64.4835 73.6758 64.4388 73.758L64.3792 73.8704Z" fill="#5E6783"/>
<path d="M65.4046 73.1722L65.5715 72.85L65.8696 72.9322L65.6997 73.2544L66.2958 73.4209L66.5075 73.0165L66.8055 73.0966L66.4687 73.7453L64.415 73.1766L64.7489 72.5278L65.0469 72.61L64.8353 73.0144L65.4046 73.1722Z" fill="#5E6783"/>
<path d="M65.5062 72.3268L66.9965 72.7377L66.8862 72.9539L64.8325 72.3852L64.9845 72.0911L66.3407 72.1949L65.1097 71.8554L65.22 71.6392L67.2737 72.2079L67.1485 72.4501L65.5062 72.3268Z" fill="#5E6783"/>
<path d="M65.2705 71.5418L65.6491 70.8174L65.9471 70.8974L65.819 71.1439L67.5805 71.6305L67.4553 71.864L65.6938 71.3775L65.5656 71.6218L65.2705 71.5418Z" fill="#5E6783"/>
<path d="M68.8211 69.4875L65.3456 70.6703C65.2718 70.6936 65.2053 70.7275 65.1501 70.7699C65.0949 70.8123 65.052 70.8624 65.0242 70.9172C64.9963 70.9719 64.984 71.0302 64.988 71.0885C64.9921 71.1468 65.0123 71.2039 65.0475 71.2563L67.1817 74.5735C67.2138 74.627 67.2605 74.6753 67.319 74.7154C67.3774 74.7554 67.4465 74.7865 67.522 74.8067C67.5974 74.8269 67.6778 74.8358 67.7581 74.8329C67.8385 74.83 67.9172 74.8153 67.9895 74.7898L69.0029 74.4459L72.6393 80.0964C72.6627 80.1331 72.6959 80.166 72.7369 80.1934C72.7779 80.2208 72.8259 80.242 72.8783 80.2559C72.9306 80.2697 72.9862 80.276 73.0419 80.2742C73.0976 80.2724 73.1522 80.2627 73.2027 80.2456L73.8972 80.0099C73.9477 79.9929 73.9932 79.9689 74.0309 79.9391C74.0686 79.9094 74.0979 79.8745 74.117 79.8365C74.1361 79.7985 74.1447 79.7582 74.1423 79.7178C74.1398 79.6774 74.1264 79.6378 74.1028 79.6012L70.4664 73.9507L71.4828 73.6069C71.5566 73.5836 71.6231 73.5497 71.6783 73.5073C71.7336 73.4649 71.7764 73.4148 71.8043 73.3601C71.8321 73.3053 71.8444 73.247 71.8404 73.1887C71.8364 73.1304 71.8161 73.0733 71.7809 73.0209L69.6467 69.7015C69.6145 69.6465 69.567 69.5969 69.5071 69.5559C69.4471 69.5149 69.3762 69.4833 69.2986 69.4632C69.221 69.4431 69.1385 69.4349 69.0563 69.439C68.9741 69.4432 68.894 69.4597 68.8211 69.4875ZM69.4172 70.1903C69.4459 70.2343 69.4624 70.2819 69.4656 70.3306C69.4689 70.3792 69.4588 70.4278 69.4361 70.4736C69.4134 70.5194 69.3785 70.5615 69.3333 70.5975C69.2881 70.6335 69.2336 70.6626 69.1728 70.6833L69.0625 70.72C68.94 70.7613 68.7999 70.7655 68.673 70.7319C68.5461 70.6982 68.4429 70.6294 68.3859 70.5406L68.3352 70.4627C68.2781 70.3738 68.2717 70.272 68.3175 70.1797C68.3632 70.0873 68.4575 70.0118 68.5796 69.9697L68.6899 69.9329C68.7508 69.9126 68.8166 69.9011 68.8835 69.8992C68.9505 69.8974 69.0173 69.9051 69.0802 69.922C69.143 69.9388 69.2006 69.9645 69.2498 69.9976C69.2989 70.0306 69.3386 70.0704 69.3665 70.1146L69.4172 70.1903Z" fill="#BFBFBF" stroke="#313952" stroke-width="0.2" stroke-linecap="round" stroke-linejoin="round"/>
<path d="M73.2726 79.7115L69.6987 74.1562L70.0713 74.0308" stroke="#313952" stroke-width="0.2" stroke-linecap="round" stroke-linejoin="round"/>
<path d="M71.041 68.0146C71.199 69.2018 70.2779 70.2376 68.9873 70.3263" stroke="#313952" stroke-width="0.2" stroke-linecap="round" stroke-linejoin="round"/>
<path d="M125.429 39.3989V48.7298L124.419 48.9201C119.552 49.837 98.8299 53.7402 97.1428 54.2051C95.2292 54.7306 93.3186 55.5437 92.6718 55.6388C92.025 55.734 88.5823 58.5581 87.5272 59.2761C86.472 59.994 83.8997 60.8071 80.9309 61.3823C77.9622 61.9575 75.1931 63.4885 74.4688 63.9664C73.7445 64.4443 70.0485 68.075 69.19 67.7939C68.5164 67.5668 67.5506 67.4306 67.5298 66.3991C67.5351 66.0456 67.6063 65.6943 67.7414 65.3547C68.4657 63.3436 70.0485 61.765 71.5656 61.3823C73.0828 60.9995 76.7103 57.6023 76.8414 56.7395L125.429 39.3989Z" fill="white"/>
<path opacity="0.4" d="M124.41 48.9204C119.543 49.8373 98.8211 53.7405 97.134 54.2054C95.2204 54.7309 93.3098 55.544 92.663 55.6391C92.0162 55.7342 88.5735 58.5584 87.5184 59.2763C86.4632 59.9943 83.8909 60.8073 80.9221 61.3825C77.9534 61.9577 75.1843 63.4888 74.46 63.9667C73.7357 64.4445 70.0397 68.0753 69.1812 67.7942C68.5076 67.5671 67.5419 67.4309 67.521 66.3994C67.9472 66.8903 68.6268 67.4612 68.901 67.2449C68.901 67.2449 68.0992 67.2017 68.901 65.7896C69.7029 64.3775 70.0933 63.6942 71.0769 64.2067C72.0606 64.7192 73.2081 64.8922 73.6046 63.865C74.001 62.8379 74.1441 63.3093 75.9295 62.4529C77.7149 61.5966 79.6017 60.1608 80.1322 60.1954C80.6628 60.23 84.7911 59.9467 86.028 59.4688C87.265 58.9909 90.7971 56.1084 90.8895 55.2801C90.9819 54.4519 95.3874 53.2561 96.4872 52.7868C97.5871 52.3176 101.888 51.7164 103.54 51.4613C105.191 51.2061 101.063 52.3003 99.8256 52.9274C98.5886 53.5545 110.258 50.7758 113.325 50.3476C116.315 49.9303 124.106 48.9593 124.41 48.9204Z" fill="#5E6783"/>
<path d="M125.429 48.73C125.429 48.73 99.0471 53.6776 97.1335 54.2074C95.2199 54.7372 93.3093 55.546 92.6625 55.6411C92.0157 55.7363 88.573 58.5604 87.5178 59.2784C86.4627 59.9963 83.8903 60.8094 80.9216 61.3846C77.9528 61.9598 75.1838 63.4908 74.4595 63.9687C73.7352 64.4466 70.0391 68.0773 69.1807 67.7962C68.3222 67.5151 67.0048 67.3637 67.7321 65.357C68.4594 63.3502 70.0391 61.7673 71.5563 61.3846C73.0734 61.0018 76.7009 57.6046 76.8321 56.7418" stroke="#313952" stroke-width="0.2" stroke-linecap="round" stroke-linejoin="round"/>
<path d="M78.9467 84.581C77.3371 85.753 72.4667 87.4246 70.723 88.322C69.489 88.9578 64.3473 89.5352 62.851 89.853C61.7899 90.0801 60.374 90.9624 58.9582 90.6704C57.5424 90.3785 45.7508 86.2699 42.9222 85.2449C40.0935 84.2199 25.4703 85.8287 16.7458 85.6211C16.1765 85.6082 15.6311 85.5952 15.1094 85.5865C7.60112 85.4417 4.71582 85.6211 4.71582 85.6211L8.72483 74.3765C8.72483 74.3765 16.1646 74.636 27.4912 76.0913C29.7774 76.3854 31.8489 76.6211 33.7029 76.8135C41.0354 77.5726 44.9401 77.6245 44.9401 77.6245C44.9401 77.6245 48.7136 75.2458 52.2517 77.2893C55.7898 79.3328 56.7227 81.0519 56.7227 81.0519L61.6766 83.1062C61.6766 83.1062 63.6826 82.8489 64.9196 83.1062C66.1566 83.3636 67.9003 82.5072 68.7945 82.1656C70.3714 81.5882 72.0732 81.2115 73.8259 81.0519C73.8259 81.0519 76.8751 80.1978 79.1166 80.6194C79.1166 80.6194 80.7678 80.1069 82.1837 80.1069C82.5501 80.1042 82.913 80.1588 83.2478 80.2669C83.6284 80.3874 83.9541 80.5839 84.1867 80.8335C84.291 81.1295 84.3697 81.4299 84.4222 81.7331C84.5473 82.3364 82.5414 81.9601 78.9467 84.581Z" fill="white"/>
<path opacity="0.4" d="M78.9471 84.5809C77.3375 85.7529 72.4671 87.4245 70.7234 88.3219C69.4894 88.9576 64.3477 89.535 62.8514 89.8529C61.7903 90.0799 60.3745 90.9622 58.9586 90.6703C57.5428 90.3784 45.7512 86.2697 42.9226 85.2447C40.0939 84.2197 25.4707 85.8286 16.7463 85.621C16.1769 85.608 15.6315 85.595 15.1099 85.5864C18.8834 85.4069 22.8596 85.1972 24.0847 85.0523C26.6004 84.7517 39.149 84.2824 40.8927 84.1743C42.6364 84.0662 56.3923 89.2582 57.9661 89.7707C59.5399 90.2832 60.6487 90.3416 61.671 89.7707C62.6934 89.1998 66.7621 88.6895 66.7621 88.6895L64.4192 88.843C64.4192 88.843 67.534 88.0256 69.5549 87.6623C71.5758 87.299 73.5848 85.9735 74.9202 85.6664C76.2555 85.3593 78.5745 83.4369 79.7399 83.0412C80.9054 82.6455 79.7399 81.4713 79.7399 81.4713C79.7399 81.4713 81.1498 81.4323 81.7042 82.0659C81.7042 82.0659 83.7668 82.1157 84.1901 80.8398C84.2944 81.1358 84.3731 81.4363 84.4256 81.7394C84.5478 82.3363 82.5418 81.96 78.9471 84.5809Z" fill="#5E6783"/>
<path opacity="0.4" d="M83.2537 80.2717C79.8468 80.9205 79.1225 81.3335 79.1225 81.3335C78.5025 81.1994 74.4756 83.0418 74.1328 83.191C73.7901 83.3402 73.5874 84.056 73.5874 84.056C73.5874 84.056 72.4309 83.191 70.4696 84.1836C68.5083 85.1761 68.2937 85.7924 68.2937 85.7924L67.5068 85.0615C67.5068 85.0615 64.1774 85.2778 63.1609 85.1588C62.3217 85.0812 61.524 84.8481 60.845 84.482C60.067 84.1057 55.9298 82.8429 55.5036 82.752C55.0773 82.6612 54.5378 82.086 54.5378 82.086C53.7837 79.889 50.0251 77.3805 47.9804 77.5795C46.7481 77.7024 45.5773 78.0457 44.5734 78.5785C44.5734 78.5785 40.7462 78.2931 38.782 78.2369C36.8177 78.1806 24.8682 76.5826 24.8682 76.5826L33.685 76.7989C41.0175 77.5579 44.9222 77.6098 44.9222 77.6098C44.9222 77.6098 48.6957 75.2311 52.2338 77.2746C55.7718 79.3181 56.7048 81.0372 56.7048 81.0372L61.6587 83.0915C61.6587 83.0915 63.6647 82.8342 64.9017 83.0915C66.1386 83.3489 67.8823 82.4925 68.7766 82.1509C70.3535 81.5735 72.0553 81.1968 73.8079 81.0372C73.8079 81.0372 76.8572 80.1831 79.0986 80.6047C79.0986 80.6047 80.7499 80.0922 82.1658 80.0922C82.5422 80.0931 82.9137 80.1544 83.2537 80.2717Z" fill="#5E6783"/>
<path opacity="0.4" d="M48.0019 83.6841C48.0019 83.6841 48.0228 84.2896 47.5876 84.2333C47.1524 84.1771 48.3775 85.0659 49.1614 84.9232C49.9453 84.7804 51.8738 86.0649 52.6219 86.6358C53.3701 87.2067 59.8739 87.9462 61.2659 87.9181C62.6579 87.89 63.7071 86.8499 62.7264 85.8011C62.7264 85.8011 62.5476 86.8348 61.6772 86.7201C61.6772 86.7201 62.5118 86.4931 61.2659 85.6389C60.02 84.7848 58.169 84.4128 57.7755 84.5837C57.3821 84.7545 54.9916 84.043 54.8515 83.9349C54.7114 83.8268 55.0631 86.4023 52.9796 86.3136C52.9796 86.3136 50.6457 85.0637 50.1808 84.5469C49.7158 84.0301 48.0019 83.6841 48.0019 83.6841Z" fill="#5E6783"/>
<path d="M8.71301 74.3809C8.71301 74.3809 16.1647 74.636 27.4913 76.0913C38.8179 77.5467 44.9402 77.6245 44.9402 77.6245C44.9402 77.6245 48.7137 75.2458 52.2518 77.2893C55.7899 79.3328 56.7228 81.052 56.7228 81.052L61.6767 83.1063C61.6767 83.1063 63.6827 82.849 64.9197 83.1063C66.1567 83.3636 67.9004 82.5073 68.7946 82.1656C70.3715 81.5883 72.0733 81.2116 73.8259 81.052C73.8259 81.052 76.8752 80.1978 79.1167 80.6195C79.1167 80.6195 80.7679 80.107 82.1838 80.107C82.5747 80.097 82.9629 80.1582 83.3129 80.2851C83.6628 80.4121 83.9633 80.6006 84.1868 80.8336C84.2911 81.1296 84.3697 81.43 84.4223 81.7331C84.5415 82.3321 82.5355 81.9494 78.9408 84.5768C77.3312 85.7488 72.4608 87.4204 70.7171 88.3178C69.4831 88.9535 64.3414 89.5309 62.8451 89.8488C61.784 90.0758 60.3682 90.9581 58.9524 90.6662C57.5365 90.3742 45.745 86.2656 42.9163 85.2406C40.0876 84.2156 25.4644 85.8245 16.74 85.6169C8.01553 85.4093 4.70996 85.6169 4.70996 85.6169" stroke="#313952" stroke-width="0.2" stroke-linecap="round" stroke-linejoin="round"/>
<path d="M63.9131 84.6027H67.5674C67.5674 84.6027 70.6912 83.7377 73.0518 83.2771C73.0518 83.2771 76.4707 81.651 77.5914 81.3958C78.7122 81.1407 80.0087 81.3958 80.4797 81.8651C80.7722 82.1867 80.9353 82.5611 80.9506 82.9463C80.9506 82.9463 77.6481 84.5141 76.7062 85.1087C75.7643 85.7034 73.7583 86.2635 71.5764 87.2906C69.3946 88.3178 65.4243 88.3719 63.9131 89.0011" stroke="#313952" stroke-width="0.2" stroke-linecap="round" stroke-linejoin="round"/>
<path d="M79.1216 80.6235C79.1216 80.6235 75.2974 81.6485 73.5537 83.039" stroke="#313952" stroke-width="0.2" stroke-linecap="round" stroke-linejoin="round"/>
<path d="M72.4314 83.1841C72.4314 83.1841 69.5729 83.7398 67.5073 84.168" stroke="#313952" stroke-width="0.2" stroke-linecap="round" stroke-linejoin="round"/>
<path d="M65.5619 83.1475C65.5619 83.1475 65.3018 83.4051 65.5619 83.9397" stroke="#313952" stroke-width="0.2" stroke-linecap="round" stroke-linejoin="round"/>
<path d="M47.5811 83.5433C47.5811 83.5433 48.9939 84.0039 49.7599 84.3044C50.526 84.605 51.441 86.0776 52.4723 86.4215C53.5037 86.7653 55.1252 86.9123 57.2414 87.1264C59.3577 87.3405 62.2013 87.7254 62.6633 86.3782C63.1253 85.031 59.924 84.1531 58.2728 83.5433C57.3932 83.2044 56.4604 82.9437 55.4948 82.7669C55.4948 82.7669 54.6751 82.2069 54.38 81.9928C54.0849 81.7787 54.0819 80.6672 53.7839 80.0898" stroke="#313952" stroke-width="0.2" stroke-linecap="round" stroke-linejoin="round"/>
<path d="M55.1498 80.6235C55.1498 80.6235 55.0723 81.5858 54.5537 82.1005" stroke="#313952" stroke-width="0.2" stroke-linecap="round" stroke-linejoin="round"/>
<path d="M60.8447 84.0495C61.0306 83.6991 61.3113 83.3793 61.6704 83.1089" stroke="#313952" stroke-width="0.2" stroke-linecap="round" stroke-linejoin="round"/>
<path d="M47.1641 84.1748C47.1641 84.1748 48.7379 84.433 49.4324 84.1748" stroke="#313952" stroke-width="0.2" stroke-linecap="round" stroke-linejoin="round"/>
<path d="M55.8631 81.7153C55.6747 82.0065 55.3705 82.2501 54.9897 82.4145" stroke="#313952" stroke-width="0.2" stroke-linecap="round" stroke-linejoin="round"/>
<path d="M54.5372 84.1748C54.5372 84.1748 54.7727 85.3295 53.4165 85.9285" stroke="#313952" stroke-width="0.2" stroke-linecap="round" stroke-linejoin="round"/>
</g>
<defs>
<filter id="filter0_d_883_67093" x="0.609863" y="11.4478" width="128.919" height="87.377" filterUnits="userSpaceOnUse" color-interpolation-filters="sRGB">
<feFlood flood-opacity="0" result="BackgroundImageFix"/>
<feColorMatrix in="SourceAlpha" type="matrix" values="0 0 0 0 0 0 0 0 0 0 0 0 0 0 0 0 0 0 127 0" result="hardAlpha"/>
<feOffset dy="4"/>
<feGaussianBlur stdDeviation="2"/>
<feComposite in2="hardAlpha" operator="out"/>
<feColorMatrix type="matrix" values="0 0 0 0 0 0 0 0 0 0 0 0 0 0 0 0 0 0 0.25 0"/>
<feBlend mode="normal" in2="BackgroundImageFix" result="effect1_dropShadow_883_67093"/>
<feBlend mode="normal" in="SourceGraphic" in2="effect1_dropShadow_883_67093" result="shape"/>
</filter>
</defs>
</svg>
